<?xml version="1.0" encoding="UTF-8" standalone="no"?><!DOCTYPE svg PUBLIC "-//W3C//DTD SVG 1.1//EN" "http://www.w3.org/Graphics/SVG/1.1/DTD/svg11.dtd"><svg width="100%" height="100%" viewBox="0 0 32000 32000" version="1.1" xmlns="http://www.w3.org/2000/svg" xmlns:xlink="http://www.w3.org/1999/xlink" xml:space="preserve" xmlns:serif="http://www.serif.com/" style="fill-rule:evenodd;clip-rule:evenodd;stroke-linejoin:round;stroke-miterlimit:2;"><rect id="Favicon" x="-0" y="0" width="32000" height="32000" style="fill:none;"/><g><path d="M12386.3,25868.6c-2590.46,497.304 -11190.6,-4482.44 -12006.1,-10433.3c199.978,-2449.04 2533,-4600.2 4650.37,-6820.1c2105.17,-2207.11 3992.87,-4488.82 4838.68,-4908.62l9572.83,1.94c-0,-0 -10189.4,9002.63 -10126.1,11031.5c34.176,1095.63 1341.7,2976.91 3556.47,4102.06c1821.73,821.624 4634.69,726.575 6155.53,361.675l-6641.65,6664.83Z" style="fill:#03283c;fill-rule:nonzero;"/><path d="M19415.1,6055.04c629.841,-139.141 1722.64,-457.15 2695.18,-9.158c2549.52,1610.54 6190.28,5383.37 9107.47,8339.78c475.493,908.611 247.505,2093.61 402.073,3026.52c-803.38,2614.23 -2183.98,3457.14 -4238.36,5734.92c-2042.54,2264.65 -3591.22,4317.34 -4424.95,4760.44l-9112.63,385.882c276.494,-1461.89 9702.09,-9619.87 9514.75,-11290.6c-64.846,-1094.26 -1765.94,-3106.35 -3222.53,-3835.36c-1544.86,-773.19 -2677.5,-414.479 -6891.59,-42.614l6170.59,-7069.78Z" style="fill:#03283c;fill-rule:nonzero;"/></g></svg>