<?xml version="1.0" encoding="UTF-8" standalone="no"?><!DOCTYPE svg PUBLIC "-//W3C//DTD SVG 1.1//EN" "http://www.w3.org/Graphics/SVG/1.1/DTD/svg11.dtd"><svg width="100%" height="100%" viewBox="0 0 2134 2134" version="1.1" xmlns="http://www.w3.org/2000/svg" xmlns:xlink="http://www.w3.org/1999/xlink" xml:space="preserve" xmlns:serif="http://www.serif.com/" style="fill-rule:evenodd;clip-rule:evenodd;stroke-linejoin:round;stroke-miterlimit:2;"><rect id="Google" x="0" y="0" width="2133.33" height="2133.33" style="fill:none;"/><g><path d="M984.059,1193.47c-91.848,17.716 -396.778,-159.682 -425.692,-371.676c7.09,-87.245 89.81,-163.878 164.884,-242.96c74.642,-78.626 141.572,-159.91 171.562,-174.865l339.416,0.069c0,0 -361.277,320.71 -359.033,392.988c1.211,39.031 47.571,106.05 126.099,146.132c64.591,29.269 164.329,25.883 218.252,12.884l-235.488,237.428Z" style="fill:#03283c;fill-rule:nonzero;"/><path d="M1233.27,487.634c22.332,-4.957 61.078,-16.285 95.561,-0.326c90.396,57.374 219.484,191.778 322.917,297.097c16.859,32.368 8.775,74.583 14.255,107.817c-28.484,93.129 -77.435,123.157 -150.276,204.301c-72.421,80.676 -127.331,153.801 -156.892,169.586l-323.099,13.747c9.803,-52.079 343.999,-342.699 337.357,-402.218c-2.299,-38.982 -62.614,-110.661 -114.259,-136.631c-54.775,-27.544 -94.934,-14.766 -244.349,-1.518l218.785,-251.855Z" style="fill:#03283c;fill-rule:nonzero;"/><g><path d="M337.5,1625.27l0,-52.71c21.247,16.181 44.701,24.271 70.361,24.271c34.323,0 51.484,-10.133 51.484,-30.4c-0,-5.72 -1.471,-10.582 -4.413,-14.587c-2.942,-4.004 -6.905,-7.559 -11.89,-10.664c-4.985,-3.105 -10.869,-5.884 -17.652,-8.336c-6.783,-2.451 -14.342,-5.23 -22.677,-8.335c-10.297,-4.086 -19.572,-8.417 -27.826,-12.994c-8.254,-4.576 -15.118,-9.765 -20.593,-15.567c-5.476,-5.802 -9.603,-12.381 -12.381,-19.736c-2.779,-7.354 -4.168,-15.935 -4.168,-25.742c0,-12.094 2.86,-22.759 8.581,-31.993c5.72,-9.234 13.402,-16.998 23.045,-23.29c9.643,-6.293 20.593,-11.032 32.851,-14.22c12.258,-3.187 24.925,-4.78 38,-4.78c23.209,-0 43.966,3.514 62.271,10.542l0,49.767c-17.651,-12.094 -37.918,-18.142 -60.8,-18.142c-7.191,0 -13.688,0.736 -19.49,2.207c-5.802,1.471 -10.746,3.514 -14.832,6.129c-4.086,2.615 -7.273,5.761 -9.561,9.439c-2.289,3.677 -3.433,7.722 -3.433,12.135c0,5.394 1.144,9.97 3.433,13.729c2.288,3.759 5.679,7.069 10.174,9.929c4.494,2.86 9.888,5.475 16.18,7.845c6.293,2.37 13.525,4.944 21.697,7.723c10.787,4.413 20.471,8.907 29.052,13.484c8.58,4.576 15.894,9.765 21.941,15.567c6.048,5.802 10.706,12.503 13.975,20.103c3.268,7.6 4.903,16.631 4.903,27.091c-0,12.748 -2.942,23.862 -8.826,33.342c-5.884,9.479 -13.729,17.324 -23.535,23.535c-9.807,6.211 -21.125,10.828 -33.955,13.852c-12.83,3.023 -26.355,4.535 -40.574,4.535c-27.458,0 -51.239,-4.576 -71.342,-13.729Z" style="fill:#03283c;fill-rule:nonzero;"/><path d="M804.865,1386.37l-141.491,342.99l-63.609,0l42.406,-95.414l-110.922,-247.011l68.516,-0c-0,-0 68.857,167.302 71.145,177.108l66.675,-178.52l67.28,0.847Z" style="fill:#03283c;fill-rule:nonzero;"/><path d="M1050.47,1633.11l-56.877,0l0,-141.458c0,-46.907 -16.589,-70.361 -49.768,-70.361c-17.324,0 -31.625,6.497 -42.903,19.491c-11.277,12.993 -16.916,29.378 -16.916,49.154l0,143.174l-57.122,0l-0,-251.044l57.122,-0l0,41.677l0.981,-0c18.795,-31.707 45.927,-47.561 81.393,-47.561c27.295,-0 48.133,8.866 62.516,26.6c14.383,17.733 21.574,43.352 21.574,76.858l0,153.47Z" style="fill:#03283c;fill-rule:nonzero;"/><path d="M1253.25,1630.41c-11.114,5.557 -25.742,8.336 -43.884,8.336c-48.705,-0 -73.058,-23.372 -73.058,-70.116l0,-141.948l-41.922,-0l-0,-44.619l41.922,-0l0,-58.103l56.877,-16.181l0,74.284l60.065,-0l-0,44.619l-60.065,-0l0,125.522c0,14.873 2.697,25.497 8.091,31.871c5.393,6.374 14.382,9.561 26.967,9.561c9.643,0 17.979,-2.778 25.007,-8.335l-0,45.109Z" style="fill:#03283c;fill-rule:nonzero;"/><path d="M1512.89,1523.03l-171.122,0c0.654,23.209 7.805,41.105 21.452,53.69c13.647,12.585 32.402,18.878 56.264,18.878c26.804,-0 51.402,-8.009 73.794,-24.026l-0,45.845c-22.882,14.383 -53.119,21.574 -90.71,21.574c-36.937,0 -65.907,-11.4 -86.909,-34.2c-21.002,-22.8 -31.504,-54.875 -31.504,-96.225c0,-39.063 11.564,-70.893 34.691,-95.491c23.127,-24.597 51.851,-36.896 86.174,-36.896c34.322,-0 60.881,11.032 79.677,33.096c18.796,22.065 28.193,52.71 28.193,91.936l0,21.819Zm-54.916,-40.206c-0.163,-20.43 -4.985,-36.325 -14.464,-47.684c-9.48,-11.359 -22.555,-17.039 -39.226,-17.039c-16.344,0 -30.195,5.966 -41.555,17.897c-11.359,11.931 -18.346,27.54 -20.961,46.826l116.206,-0Z" style="fill:#03283c;fill-rule:nonzero;"/><path d="M1795.83,1633.11l-72.077,0l-97.574,-120.619l-0.98,0l-0,120.619l-57.123,0l0,-371.663l57.123,-0l-0,235.599l0.98,-0l92.181,-114.98l68.399,-0l-103.703,121.109l112.774,129.935Z" style="fill:#03283c;fill-rule:nonzero;"/></g></g></svg>