<?xml version="1.0" encoding="UTF-8" standalone="no"?><!DOCTYPE svg PUBLIC "-//W3C//DTD SVG 1.1//EN" "http://www.w3.org/Graphics/SVG/1.1/DTD/svg11.dtd"><svg width="100%" height="100%" viewBox="0 0 32000 18000" version="1.1" xmlns="http://www.w3.org/2000/svg" xmlns:xlink="http://www.w3.org/1999/xlink" xml:space="preserve" xmlns:serif="http://www.serif.com/" style="fill-rule:evenodd;clip-rule:evenodd;stroke-linejoin:round;stroke-miterlimit:2;"><rect id="Logo_2-w-o-Tagline" serif:id="Logo_2 w/o Tagline" x="0" y="0" width="32000" height="18000" style="fill:none;"/><g><path d="M15044.1,10467.4c-1062.87,205.011 -4591.55,-1847.87 -4926.15,-4301.08c82.052,-1009.61 1039.3,-1896.41 1908.06,-2811.55c863.757,-909.869 1638.28,-1850.49 1985.32,-2023.56l3927.76,0.8c-0,-0 -4180.74,3711.29 -4154.77,4547.69c14.022,451.668 550.501,1227.22 1459.23,1691.05c747.459,338.71 1901.63,299.527 2525.63,149.098l-2725.09,2747.54Z" style="fill:#03283c;fill-rule:nonzero;"/><path d="M17928,2299.38c258.426,-57.36 706.803,-188.458 1105.84,-3.775c1046.08,663.937 2539.89,2219.27 3736.82,3438.03c195.096,374.57 101.551,863.08 164.971,1247.67c-329.629,1077.7 -896.092,1425.19 -1739.01,2364.19c-838.061,933.591 -1473.49,1779.8 -1815.57,1962.47l-3738.94,159.078c113.446,-602.658 3980.8,-3965.74 3903.93,-4654.51c-26.607,-451.102 -724.572,-1280.58 -1322.21,-1581.11c-633.861,-318.744 -1098.59,-170.867 -2827.64,-17.567l2531.81,-2914.48Z" style="fill:#03283c;fill-rule:nonzero;"/><g><path d="M7562.01,15464.2l-0,-609.96c245.875,187.243 517.284,280.865 814.225,280.865c397.184,-0 595.775,-117.264 595.775,-351.791c0,-66.197 -17.022,-122.465 -51.066,-168.803c-34.044,-46.338 -79.91,-87.475 -137.596,-123.41c-57.686,-35.936 -125.774,-68.089 -204.265,-96.459c-78.491,-28.37 -165.966,-60.523 -262.425,-96.459c-119.155,-47.284 -226.489,-97.404 -322.002,-150.362c-95.513,-52.958 -174.95,-113.008 -238.31,-180.151c-63.36,-67.143 -111.117,-143.27 -143.27,-228.381c-32.153,-85.11 -48.229,-184.406 -48.229,-297.887c-0,-139.96 33.098,-263.37 99.296,-370.232c66.197,-106.861 155.09,-196.7 266.68,-269.517c111.589,-72.817 238.31,-127.666 380.161,-164.547c141.851,-36.881 288.431,-55.322 439.739,-55.322c268.571,-0 508.772,40.664 720.603,121.992l0,575.916c-204.265,-139.96 -438.792,-209.94 -703.581,-209.94c-83.22,-0 -158.401,8.511 -225.544,25.533c-67.143,17.022 -124.356,40.664 -171.64,70.926c-47.283,30.261 -84.165,66.67 -110.643,109.225c-26.479,42.555 -39.719,89.366 -39.719,140.433c0,62.414 13.24,115.372 39.719,158.873c26.478,43.501 65.724,81.801 117.736,114.9c52.012,33.098 114.427,63.36 187.244,90.784c72.816,27.425 156.509,57.214 251.076,89.366c124.829,51.067 236.892,103.079 336.187,156.037c99.296,52.958 183.934,113.008 253.914,180.151c69.98,67.143 123.883,144.688 161.71,232.636c37.827,87.947 56.741,192.444 56.741,313.491c-0,147.525 -34.045,276.137 -102.133,385.835c-68.089,109.698 -158.873,200.483 -272.354,272.354c-113.481,71.871 -244.457,125.302 -392.928,160.292c-148.471,34.99 -304.98,52.485 -469.527,52.485c-317.747,-0 -592.938,-52.958 -825.574,-158.873Z" style="fill:#03283c;fill-rule:nonzero;"/><path d="M12970.4,12699.6l-1637.35,3969.12l-736.096,-0l490.731,-1104.14l-1283.59,-2858.44l792.863,0c0,0 796.824,1936.04 823.303,2049.52l771.571,-2065.85l778.567,9.801Z" style="fill:#03283c;fill-rule:nonzero;"/><path d="M15812.6,15555l-658.189,0l-0,-1636.96c-0,-542.817 -191.972,-814.226 -575.916,-814.226c-200.483,0 -365.976,75.181 -496.479,225.544c-130.503,150.362 -195.755,339.97 -195.755,568.823l0,1656.82l-661.026,0l0,-2905.11l661.026,0l0,482.294l11.349,0c217.505,-366.921 531.469,-550.382 941.891,-550.382c315.856,-0 557.003,102.606 723.441,307.817c166.439,205.211 249.658,501.68 249.658,889.407l0,1775.98Z" style="fill:#03283c;fill-rule:nonzero;"/><path d="M18159.1,15523.7c-128.612,64.306 -297.888,96.459 -507.827,96.459c-563.622,-0 -845.433,-270.463 -845.433,-811.389l-0,-1642.64l-485.131,-0l-0,-516.339l485.131,0l-0,-672.374l658.189,-187.244l0,859.618l695.071,0l-0,516.339l-695.071,-0l0,1452.56c0,172.112 31.207,295.05 93.622,368.813c62.414,73.762 166.439,110.644 312.073,110.644c111.589,-0 208.048,-32.153 289.376,-96.459l-0,522.012Z" style="fill:#03283c;fill-rule:nonzero;"/><path d="M21163.8,14281.1l-1980.24,-0c7.565,268.571 90.312,475.674 248.239,621.308c157.928,145.634 374.96,218.451 651.097,218.451c310.181,-0 594.829,-92.676 853.944,-278.029l0,530.524c-264.789,166.439 -614.688,249.658 -1049.7,249.658c-427.444,-0 -762.686,-131.922 -1005.72,-395.765c-243.039,-263.843 -364.558,-635.02 -364.558,-1113.53c0,-452.032 133.813,-820.372 401.439,-1105.02c267.626,-284.648 600.03,-426.972 997.214,-426.972c397.183,-0 704.527,127.666 922.032,382.998c217.505,255.332 326.258,609.96 326.258,1063.88l-0,252.495Zm-635.493,-465.272c-1.892,-236.419 -57.686,-420.352 -167.385,-551.801c-109.698,-131.449 -261.006,-197.173 -453.923,-197.173c-189.135,-0 -349.427,69.034 -480.876,207.103c-131.449,138.068 -212.304,318.692 -242.565,541.871l1344.75,0Z" style="fill:#03283c;fill-rule:nonzero;"/><path d="M24438,15555l-834.085,0l-1129.13,-1395.82l-11.348,-0l-0,1395.82l-661.026,0l-0,-4300.93l661.026,-0l-0,2726.38l11.348,0l1066.72,-1330.56l791.529,0l-1200.06,1401.49l1305.03,1503.62Z" style="fill:#03283c;fill-rule:nonzero;"/></g></g></svg>