<?xml version="1.0" encoding="UTF-8" standalone="no"?><!DOCTYPE svg PUBLIC "-//W3C//DTD SVG 1.1//EN" "http://www.w3.org/Graphics/SVG/1.1/DTD/svg11.dtd"><svg width="100%" height="100%" viewBox="0 0 32000 18000" version="1.1" xmlns="http://www.w3.org/2000/svg" xmlns:xlink="http://www.w3.org/1999/xlink" xml:space="preserve" xmlns:serif="http://www.serif.com/" style="fill-rule:evenodd;clip-rule:evenodd;stroke-linejoin:round;stroke-miterlimit:2;"><rect id="Logo_2" x="0" y="0" width="32000" height="18000" style="fill:none;"/><g><path d="M15295.2,9181.45c-721.966,139.256 -3118.86,-1255.18 -3346.14,-2921.55c55.734,-685.785 705.953,-1288.16 1296.07,-1909.78c586.715,-618.037 1112.82,-1256.97 1348.55,-1374.52l2667.97,0.543c-0,-0 -2839.81,2520.93 -2822.17,3089.06c9.525,306.8 373.933,833.599 991.197,1148.66c507.718,230.073 1291.7,203.457 1715.56,101.277l-1851.04,1866.3Z" style="fill:#03283c;fill-rule:nonzero;"/><path d="M17254.1,3633.23c175.538,-38.962 480.103,-128.012 751.152,-2.564c710.557,450.986 1725.25,1507.46 2538.27,2335.32c132.521,254.431 68.98,586.256 112.058,847.491c-223.904,732.041 -608.679,968.074 -1181.24,1605.9c-569.261,634.15 -1000.88,1208.95 -1233.24,1333.03l-2539.71,108.055c77.06,-409.361 2703.99,-2693.77 2651.78,-3161.62c-18.073,-306.415 -492.173,-869.845 -898.126,-1073.98c-430.557,-216.51 -746.226,-116.063 -1920.7,-11.933l1719.76,-1979.69Z" style="fill:#03283c;fill-rule:nonzero;"/><g transform="matrix(0.610032,0,0,1,563.849,0)"><g transform="matrix(1401.58,0,0,1401.58,35582.7,14694.5)"></g><text x="14918.3px" y="14694.5px" style="font-family:'SegoeUI-Semibold', 'Segoe UI', sans-serif;font-weight:600;font-size:1401.58px;fill:#03283c;">Build t<tspan x="19042.9px 19879.9px " y="14694.5px 14694.5px ">od</tspan>ay<tspan x="22085.6px 22423.7px 22809px 23538.5px 24250.9px " y="14694.5px 14694.5px 14694.5px 14694.5px 14694.5px ">. Syn</tspan>c with t<tspan x="29745px 30582px " y="14694.5px 14694.5px ">om</tspan>orr<tspan x="33685.6px 34522.6px " y="14694.5px 14694.5px ">ow</tspan></text></g><g><path d="M10212.9,12575.5l0,-414.321c167.013,127.187 351.37,190.78 553.071,190.78c269.79,0 404.686,-79.652 404.686,-238.957c-0,-44.965 -11.563,-83.185 -34.688,-114.661c-23.125,-31.476 -54.279,-59.418 -93.463,-83.828c-39.184,-24.409 -85.434,-46.25 -138.749,-65.52c-53.316,-19.271 -112.734,-41.111 -178.255,-65.521c-80.937,-32.118 -153.845,-66.163 -218.723,-102.135c-64.878,-35.972 -118.836,-76.762 -161.874,-122.369c-43.038,-45.608 -75.477,-97.317 -97.317,-155.13c-21.841,-57.812 -32.761,-125.26 -32.761,-202.343c0,-95.069 22.483,-178.896 67.448,-251.483c44.965,-72.586 105.347,-133.611 181.145,-183.072c75.798,-49.462 161.874,-86.719 258.228,-111.77c96.354,-25.052 195.919,-37.578 298.697,-37.578c182.43,-0 345.589,27.621 489.477,82.864l-0,391.196c-138.749,-95.069 -298.054,-142.604 -477.915,-142.604c-56.527,0 -107.595,5.782 -153.202,17.344c-45.608,11.563 -84.47,27.622 -116.588,48.177c-32.118,20.556 -57.17,45.286 -75.156,74.192c-17.986,28.907 -26.979,60.703 -26.979,95.391c-0,42.395 8.993,78.367 26.979,107.916c17.986,29.548 44.644,55.564 79.973,78.046c35.33,22.483 77.726,43.038 127.187,61.667c49.462,18.628 106.311,38.863 170.547,60.703c84.791,34.687 160.91,70.017 228.358,105.989c67.448,35.972 124.939,76.762 172.473,122.369c47.535,45.608 84.149,98.281 109.844,158.02c25.694,59.74 38.541,130.72 38.541,212.942c0,100.208 -23.125,187.569 -69.375,262.082c-46.25,74.514 -107.916,136.18 -184.999,185c-77.083,48.819 -166.05,85.112 -266.9,108.879c-100.85,23.768 -207.16,35.651 -318.931,35.651c-215.832,0 -402.759,-35.972 -560.779,-107.916Z" style="fill:#03283c;fill-rule:nonzero;"/><path d="M13886.6,10697.7l-1112.18,2696.06l-500,-0l333.333,-750l-871.893,-1941.62l538.56,-0c0,-0 541.251,1315.07 559.237,1392.15l524.096,-1403.25l528.85,6.657Z" style="fill:#03283c;fill-rule:nonzero;"/><path d="M15817.2,12637.2l-447.081,-0l-0,-1111.92c-0,-368.714 -130.399,-553.071 -391.196,-553.071c-136.18,0 -248.593,51.068 -337.239,153.203c-88.645,102.135 -132.968,230.928 -132.968,386.379l0,1125.41l-449.008,-0l-0,-1973.33l449.008,0l0,327.603l7.708,0c147.743,-249.235 361.006,-373.852 639.79,-373.852c214.547,-0 378.349,69.695 491.404,209.087c113.055,139.392 169.582,340.771 169.582,604.138l0,1206.35Z" style="fill:#03283c;fill-rule:nonzero;"/><path d="M17411.1,12616c-87.361,43.68 -202.343,65.52 -344.947,65.52c-382.845,0 -574.268,-183.714 -574.268,-551.143l-0,-1115.78l-329.53,0l-0,-350.728l329.53,0l-0,-456.717l447.081,-127.186l0,583.903l472.134,0l-0,350.728l-472.134,0l0,986.663c0,116.909 21.198,200.415 63.594,250.519c42.395,50.104 113.055,75.156 211.978,75.156c75.798,0 141.319,-21.84 196.562,-65.52l-0,354.582Z" style="fill:#03283c;fill-rule:nonzero;"/><path d="M19452.1,11772l-1345.1,-0c5.139,182.429 61.345,323.106 168.619,422.029c107.274,98.923 254.695,148.385 442.264,148.385c210.693,-0 404.043,-62.951 580.049,-188.853l0,360.363c-179.86,113.055 -417.533,169.582 -713.017,169.582c-290.346,0 -518.063,-89.609 -683.149,-268.827c-165.086,-179.218 -247.629,-431.343 -247.629,-756.377c0,-307.047 90.894,-557.246 272.681,-750.596c181.788,-193.35 407.577,-290.024 677.367,-290.024c269.791,-0 478.557,86.718 626.3,260.155c147.742,173.436 221.613,414.321 221.613,722.653l0,171.51Zm-431.664,-316.041c-1.285,-160.589 -39.184,-285.528 -113.698,-374.816c-74.513,-89.288 -177.291,-133.932 -308.332,-133.932c-128.472,0 -237.351,46.893 -326.639,140.677c-89.288,93.784 -144.21,216.475 -164.765,368.071l913.434,0Z" style="fill:#03283c;fill-rule:nonzero;"/><path d="M21676.1,12637.2l-566.56,-0l-766.976,-948.122l-7.708,0l0,948.122l-449.009,-0l0,-2921.45l449.009,0l0,1851.92l7.708,-0l724.581,-903.799l537.654,0l-815.153,951.976l886.454,1021.35Z" style="fill:#03283c;fill-rule:nonzero;"/></g></g></svg>