<?xml version="1.0" encoding="UTF-8" standalone="no"?><!DOCTYPE svg PUBLIC "-//W3C//DTD SVG 1.1//EN" "http://www.w3.org/Graphics/SVG/1.1/DTD/svg11.dtd"><svg width="100%" height="100%" viewBox="0 0 32000 18000" version="1.1" xmlns="http://www.w3.org/2000/svg" xmlns:xlink="http://www.w3.org/1999/xlink" xml:space="preserve" xmlns:serif="http://www.serif.com/" style="fill-rule:evenodd;clip-rule:evenodd;stroke-linejoin:round;stroke-miterlimit:2;"><rect id="Logo_2-icon" serif:id="Logo_2 icon" x="0" y="0" width="32000" height="18000" style="fill:none;"/><g><path d="M13708.6,15287.2c-1642.6,316.83 -7095.93,-2855.75 -7613.03,-6647.02c126.805,-1560.28 1606.16,-2930.77 2948.78,-4345.06c1334.88,-1406.14 2531.86,-2859.81 3068.18,-3127.26l6070.08,1.236c0,-0 -6461.04,5735.54 -6420.91,7028.14c21.671,698.022 850.762,1896.58 2255.14,2613.41c1155.15,523.454 2938.84,462.898 3903.19,230.421l-4211.43,4246.14Z" style="fill:#03283c;fill-rule:nonzero;"/><path d="M18165.5,2664.1c399.379,-88.647 1092.32,-291.249 1709,-5.835c1616.64,1026.07 3925.23,3429.73 5775,5313.24c301.507,578.872 156.941,1333.83 254.952,1928.19c-509.419,1665.52 -1384.85,2202.53 -2687.52,3653.7c-1295.17,1442.8 -2277.17,2750.56 -2805.84,3032.86l-5778.27,245.844c175.324,-931.366 6152.05,-6128.78 6033.26,-7193.22c-41.118,-697.147 -1119.78,-1979.05 -2043.39,-2443.49c-979.589,-492.596 -1697.79,-264.063 -4369.92,-27.149l3912.74,-4504.13Z" style="fill:#03283c;fill-rule:nonzero;"/></g></svg>