<?xml version="1.0" encoding="UTF-8" standalone="no"?><!DOCTYPE svg PUBLIC "-//W3C//DTD SVG 1.1//EN" "http://www.w3.org/Graphics/SVG/1.1/DTD/svg11.dtd"><svg width="100%" height="100%" viewBox="0 0 32000 18000" version="1.1" xmlns="http://www.w3.org/2000/svg" xmlns:xlink="http://www.w3.org/1999/xlink" xml:space="preserve" xmlns:serif="http://www.serif.com/" style="fill-rule:evenodd;clip-rule:evenodd;stroke-linejoin:round;stroke-miterlimit:2;"><rect id="Side_on_logo" x="-0" y="0" width="32000" height="18000" style="fill:none;"/><g><g><path d="M13957.4,10502.8l-0,-609.96c245.875,187.243 517.284,280.865 814.226,280.865c397.183,-0 595.775,-117.264 595.775,-351.791c-0,-66.197 -17.023,-122.465 -51.067,-168.803c-34.044,-46.338 -79.909,-87.475 -137.596,-123.41c-57.686,-35.936 -125.774,-68.089 -204.265,-96.459c-78.491,-28.37 -165.966,-60.523 -262.425,-96.459c-119.155,-47.284 -226.489,-97.404 -322.002,-150.362c-95.513,-52.958 -174.95,-113.008 -238.31,-180.151c-63.36,-67.143 -111.117,-143.27 -143.27,-228.381c-32.153,-85.11 -48.229,-184.406 -48.229,-297.887c-0,-139.96 33.099,-263.37 99.296,-370.232c66.197,-106.861 155.09,-196.7 266.68,-269.517c111.59,-72.817 238.31,-127.666 380.161,-164.547c141.851,-36.881 288.431,-55.322 439.739,-55.322c268.571,-0 508.773,40.664 720.604,121.992l-0,575.916c-204.266,-139.96 -438.793,-209.94 -703.582,-209.94c-83.22,-0 -158.401,8.511 -225.544,25.533c-67.142,17.022 -124.356,40.664 -171.639,70.926c-47.284,30.261 -84.165,66.67 -110.644,109.225c-26.479,42.556 -39.719,89.366 -39.719,140.433c0,62.414 13.24,115.372 39.719,158.873c26.479,43.501 65.724,81.801 117.736,114.9c52.012,33.098 114.427,63.36 187.244,90.784c72.817,27.425 156.509,57.214 251.076,89.367c124.829,51.066 236.892,103.078 336.188,156.036c99.295,52.958 183.933,113.008 253.913,180.151c69.98,67.143 123.883,144.688 161.71,232.636c37.827,87.947 56.741,192.444 56.741,313.491c-0,147.525 -34.044,276.137 -102.133,385.835c-68.089,109.698 -158.873,200.483 -272.354,272.354c-113.481,71.871 -244.457,125.302 -392.928,160.292c-148.471,34.99 -304.98,52.485 -469.527,52.485c-317.747,-0 -592.938,-52.958 -825.574,-158.873Z" style="fill:#03283c;fill-rule:nonzero;"/><path d="M19365.8,7738.25l-1637.35,3969.12l-736.096,-0l490.731,-1104.14l-1283.59,-2858.44l792.863,0c0,0 796.825,1936.04 823.303,2049.52l771.571,-2065.85l778.568,9.801Z" style="fill:#03283c;fill-rule:nonzero;"/><path d="M22208,10593.6l-658.189,0l0,-1636.96c0,-542.817 -191.972,-814.226 -575.916,-814.226c-200.483,0 -365.976,75.181 -496.479,225.544c-130.503,150.362 -195.754,339.97 -195.754,568.823l-0,1656.82l-661.027,0l0,-2905.11l661.027,-0l-0,482.293l11.348,0c217.505,-366.921 531.469,-550.382 941.891,-550.382c315.856,-0 557.003,102.606 723.441,307.817c166.439,205.211 249.658,501.68 249.658,889.407l0,1775.98Z" style="fill:#03283c;fill-rule:nonzero;"/><path d="M24554.5,10562.3c-128.612,64.306 -297.887,96.459 -507.827,96.459c-563.622,-0 -845.433,-270.463 -845.433,-811.389l-0,-1642.64l-485.131,-0l-0,-516.338l485.131,-0l-0,-672.375l658.189,-187.244l0,859.619l695.071,-0l0,516.338l-695.071,-0l0,1452.56c0,172.112 31.208,295.05 93.622,368.813c62.415,73.762 166.439,110.644 312.073,110.644c111.589,-0 208.048,-32.153 289.376,-96.459l0,522.012Z" style="fill:#03283c;fill-rule:nonzero;"/><path d="M27559.1,9319.73l-1980.24,-0c7.565,268.571 90.312,475.674 248.239,621.308c157.928,145.634 374.96,218.451 651.097,218.451c310.181,-0 594.829,-92.676 853.944,-278.028l0,530.523c-264.789,166.439 -614.688,249.658 -1049.7,249.658c-427.445,-0 -762.687,-131.922 -1005.73,-395.765c-243.038,-263.843 -364.558,-635.02 -364.558,-1113.53c0,-452.033 133.813,-820.373 401.439,-1105.02c267.626,-284.648 600.031,-426.972 997.214,-426.972c397.183,-0 704.527,127.666 922.032,382.998c217.506,255.332 326.258,609.96 326.258,1063.88l0,252.495Zm-635.493,-465.272c-1.891,-236.419 -57.686,-420.352 -167.385,-551.801c-109.698,-131.449 -261.006,-197.173 -453.923,-197.173c-189.135,-0 -349.427,69.034 -480.876,207.103c-131.448,138.068 -212.304,318.692 -242.565,541.871l1344.75,0Z" style="fill:#03283c;fill-rule:nonzero;"/><path d="M30833.3,10593.6l-834.085,0l-1129.13,-1395.82l-11.348,-0l0,1395.82l-661.026,0l-0,-4300.93l661.026,0l0,2726.38l11.348,0l1066.72,-1330.56l791.529,-0l-1200.06,1401.49l1305.03,1503.62Z" style="fill:#03283c;fill-rule:nonzero;"/></g><path d="M5764.32,12472.4c-907.195,174.983 -3919.04,-1577.21 -4204.63,-3671.11c70.034,-861.731 887.074,-1618.65 1628.59,-2399.75c737.245,-776.602 1398.33,-1579.45 1694.54,-1727.17l3352.47,0.682c-0,0 -3568.39,3167.7 -3546.23,3881.6c11.968,385.514 469.871,1047.47 1245.5,1443.37c637.98,289.101 1623.1,255.656 2155.71,127.261l-2325.95,2345.12Z" style="fill:#03283c;fill-rule:nonzero;"/><path d="M8225.83,5500.72c220.574,-48.959 603.279,-160.855 943.869,-3.222c892.859,566.692 2167.88,1894.22 3189.5,2934.47c166.521,319.708 86.678,736.666 140.809,1064.93c-281.349,919.854 -764.843,1216.44 -1484.3,2017.91c-715.312,796.85 -1257.67,1519.12 -1549.65,1675.03l-3191.3,135.778c96.83,-514.387 3397.74,-3384.89 3332.13,-3972.77c-22.71,-385.03 -618.446,-1093.02 -1128.55,-1349.53c-541.021,-272.057 -937.679,-145.84 -2413.48,-14.994l2160.98,-2487.61Z" style="fill:#03283c;fill-rule:nonzero;"/></g></svg>